<svg height="782" width="720" xmlns="http://www.w3.org/2000/svg">
<rect height="782" fill="#555" width="720"></rect>
<text fill="#7f7" font-family="Courier New" font-size="12" xml:space="preserve">
<tspan x="10" y="26">11 megabytes installed</tspan>
<tspan x="10" y="42"></tspan>
<tspan x="10" y="58">node_modules</tspan>
<tspan x="10" y="74">└─┬ cloudflare@1.1.1 </tspan>
<tspan x="10" y="90">  ├── es-class@2.1.1 </tspan>
<tspan x="10" y="106">  ├─┬ got@6.7.1 </tspan>
<tspan x="10" y="122">  │ ├─┬ create-error-class@3.0.2 </tspan>
<tspan x="10" y="138">  │ │ └── capture-stack-trace@1.0.0 </tspan>
<tspan x="10" y="154">  │ ├── duplexer3@0.1.4 </tspan>
<tspan x="10" y="170">  │ ├── get-stream@3.0.0 </tspan>
<tspan x="10" y="186">  │ ├── is-redirect@1.0.0 </tspan>
<tspan x="10" y="202">  │ ├── is-retry-allowed@1.1.0 </tspan>
<tspan x="10" y="218">  │ ├── is-stream@1.1.0 </tspan>
<tspan x="10" y="234">  │ ├── lowercase-keys@1.0.0 </tspan>
<tspan x="10" y="250">  │ ├── safe-buffer@5.0.1 </tspan>
<tspan x="10" y="266">  │ ├── timed-out@4.0.1 </tspan>
<tspan x="10" y="282">  │ ├── unzip-response@2.0.1 </tspan>
<tspan x="10" y="298">  │ └─┬ url-parse-lax@1.0.0 </tspan>
<tspan x="10" y="314">  │   └── prepend-http@1.0.4 </tspan>
<tspan x="10" y="330">  ├── lodash@4.17.4 </tspan>
<tspan x="10" y="346">  ├─┬ spdy@3.4.4 </tspan>
<tspan x="10" y="362">  │ ├─┬ debug@2.6.4 </tspan>
<tspan x="10" y="378">  │ │ └── ms@0.7.3 </tspan>
<tspan x="10" y="394">  │ ├── handle-thing@1.2.5 </tspan>
<tspan x="10" y="410">  │ ├── http-deceiver@1.2.7 </tspan>
<tspan x="10" y="426">  │ ├── select-hose@2.0.0 </tspan>
<tspan x="10" y="442">  │ └─┬ spdy-transport@2.0.18 </tspan>
<tspan x="10" y="458">  │   ├─┬ hpack.js@2.1.6 </tspan>
<tspan x="10" y="474">  │   │ └── inherits@2.0.3 </tspan>
<tspan x="10" y="490">  │   ├── obuf@1.1.1 </tspan>
<tspan x="10" y="506">  │   ├─┬ readable-stream@2.2.9 </tspan>
<tspan x="10" y="522">  │   │ ├── buffer-shims@1.0.0 </tspan>
<tspan x="10" y="538">  │   │ ├── core-util-is@1.0.2 </tspan>
<tspan x="10" y="554">  │   │ ├── isarray@1.0.0 </tspan>
<tspan x="10" y="570">  │   │ ├── process-nextick-args@1.0.7 </tspan>
<tspan x="10" y="586">  │   │ ├── string_decoder@1.0.0 </tspan>
<tspan x="10" y="602">  │   │ └── util-deprecate@1.0.2 </tspan>
<tspan x="10" y="618">  │   └─┬ wbuf@1.7.2 </tspan>
<tspan x="10" y="634">  │     └── minimalistic-assert@1.0.0 </tspan>
<tspan x="10" y="650">  ├── url-join@1.1.0 </tspan>
<tspan x="10" y="666">  └─┬ verymodel@3.6.0 </tspan>
<tspan x="10" y="682">    └─┬ joi@7.3.0 </tspan>
<tspan x="10" y="698">      ├── hoek@3.0.4 </tspan>
<tspan x="10" y="714">      ├── isemail@2.2.1 </tspan>
<tspan x="10" y="730">      ├── moment@2.18.1 </tspan>
<tspan x="10" y="746">      └─┬ topo@2.0.2 </tspan>
<tspan x="10" y="762">        └── hoek@4.1.1</tspan>
</text>
</svg>
